<?xml version="1.0" encoding="UTF-8" standalone="no"?>
<svg
   xmlns="http://www.w3.org/2000/svg"
   viewBox="0 0 128 50"
   id="svg2"
   version="1.1">
  <metadata
     id="metadata8">
    <rdf:RDF>
      <cc:Work
         rdf:about="">
        <dc:format>image/svg+xml</dc:format>
        <dc:type
           rdf:resource="http://purl.org/dc/dcmitype/StillImage" />
        <dc:title></dc:title>
      </cc:Work>
    </rdf:RDF>
  </metadata>
  <defs
     id="defs6" />
  <path
     id="path3682"
     d="m 15.947799,44.203907 c -5.180635,-5.956305 -5.258194,-6 -10.649967,-6 -2.9872299,0 -5.43132704,-0.244904 -5.43132704,-0.544232 0,-1.235042 21.28217604,-36.455768 22.02845204,-36.455768 0.643657,0 20.498287,32.939084 21.804881,36.174574 0.183334,0.453984 -2.152634,0.825426 -5.19104,0.825426 -5.498521,0 -5.549089,0.02808 -10.805792,6 -2.90478,3.3 -5.563827,6 -5.908992,6 -0.345166,0 -2.975962,-2.7 -5.846215,-6 z M 27.628695,42.944708 32.822564,37.68551 28.326293,23.296284 C 25.853343,15.382209 23.999458,8.73762 24.206548,8.53053 c 0.20709,-0.20709 1.816412,4.247201 3.57627,9.898425 6.323442,20.30572 5.21987,18.236683 9.911408,18.58245 2.294753,0.169124 4.162959,-0.05588 4.151567,-0.5 -0.01139,-0.444124 -3.980137,-7.557498 -8.819433,-15.807498 -7.398331,-12.612624 -9.174452,-15 -11.159457,-15 -1.98624,0 -3.752106,2.379522 -11.131645,15 -4.8240013,8.25 -8.7929255,15.363374 -8.819832,15.807498 -0.026907,0.444124 1.8286047,0.669124 4.1233585,0.5 4.7000575,-0.346395 3.726892,1.489531 9.8727305,-18.625413 1.733872,-5.674853 3.342998,-10.12741 3.575837,-9.894571 0.232839,0.232838 -1.592542,6.9009 -4.056401,14.817914 l -4.479743,14.394572 5.173488,5.25 c 2.845419,2.8875 5.429233,5.25 5.741809,5.25 0.312576,0 2.905562,-2.366639 5.76219,-5.259199 z M 22.279682,28.703907 c 10e-4,-9.9 0.150701,-13.814738 0.33256,-8.699419 0.181859,5.11532 0.181001,13.21532 -0.0019,18 -0.182915,4.784681 -0.331708,0.599419 -0.33066,-9.300581 z m 57.336823,10.468838 c 2.123716,-0.85363 2.25,-1.46746 2.25,-10.936614 0,-6.021483 0.399786,-10.032224 1,-10.032224 1.338532,0 1.307748,17.55645 -0.03518,20.065741 -0.569351,1.063843 -2.031851,1.905735 -3.25,1.870873 l -2.21482,-0.06339 z M 58.473494,32.62212 c -0.333844,-0.869984 -0.606989,-4.244984 -0.606989,-7.5 0,-4.925536 -0.293532,-5.93767 -1.75,-6.034214 -1.589585,-0.105368 -1.595128,-0.156855 -0.06047,-0.561679 0.929242,-0.245122 1.874317,-1.655422 2.100168,-3.133999 l 0.410638,-2.688321 0.149832,2.75 c 0.114159,2.095258 0.68553,2.782423 2.399832,2.886182 l 2.25,0.136182 -2.25,0.433369 c -2.028773,0.390759 -2.25,1.010895 -2.25,6.307114 0,4.936144 0.354769,6.122235 2.222506,7.430449 2.214824,1.551323 2.215194,1.556704 0.106989,1.556704 -1.163535,0 -2.388662,-0.711804 -2.722506,-1.581787 z m 8.593011,0.381787 c -1.83712,-1.83712 -1.42786,-5.607686 0.734259,-6.764816 1.063842,-0.569351 3.538842,-1.035184 5.5,-1.035184 3.924163,0 4.700019,-1.722865 1.994312,-4.428571 -1.982706,-1.982707 -4.844313,-2.01283 -6.785714,-0.07143 -2.243297,2.243297 -3.233467,1.810098 -1.142857,-0.5 2.026753,-2.239537 7.398387,-2.701613 9.3,-0.8 0.709765,0.709765 1.193744,4.080133 1.184687,8.25 -0.0084,3.8775 -0.357799,6.511254 -0.776393,5.852786 -0.501946,-0.789582 -1.262818,-0.879917 -2.234687,-0.265312 -2.07934,1.314963 -6.351685,1.184448 -7.773607,-0.237473 z m 7.577494,-1.356704 c 1.222378,-0.856187 2.222506,-2.431187 2.222506,-3.5 0,-1.501812 -0.696485,-1.943296 -3.065741,-1.943296 -4.067174,0 -6.934259,1.633959 -6.934259,3.95185 0,3.163304 4.23195,3.974841 7.777494,1.491446 z m 14.422506,1.356704 c -1.83712,-1.83712 -1.42786,-5.607686 0.734259,-6.764816 1.063842,-0.569351 3.538842,-1.035184 5.5,-1.035184 2.877791,0 3.565741,-0.379079 3.565741,-1.964816 0,-1.080649 -0.941913,-2.468913 -2.093141,-3.085031 -2.282409,-1.221509 -6.906859,-0.505833 -6.906859,1.068899 0,0.539521 -0.519744,0.980948 -1.154988,0.980948 -0.654987,0 -0.37144,-0.86581 0.654988,-2 0.995486,-1.1 3.058088,-2 4.583559,-2 4.541867,0 5.918391,2.290996 5.901128,9.821429 -0.0084,3.673214 -0.357799,6.139825 -0.776393,5.481357 -0.501946,-0.789582 -1.262818,-0.879917 -2.234687,-0.265312 -2.07934,1.314963 -6.351685,1.184448 -7.773607,-0.237474 z m 7.577494,-1.356704 c 1.222378,-0.856187 2.222506,-2.431187 2.222506,-3.5 0,-1.501812 -0.696485,-1.943296 -3.065741,-1.943296 -4.067174,0 -6.934259,1.633959 -6.934259,3.95185 0,3.163304 4.23195,3.974841 7.777494,1.491446 z m 8.410251,-5.443296 c -0.0698,-4.675 0.22832,-7.825 0.66251,-7 0.43419,0.825 0.49131,4.65 0.12693,8.5 l -0.66251,7 z m 9.81225,1.622445 c 0,-7.237545 -1.3675,-9.248991 -5.5708,-8.194031 -1.68537,0.423 -2.37117,0.286705 -1.95397,-0.388332 0.96066,-1.55438 5.63045,-1.254414 7.55265,0.485146 1.51048,1.366971 1.8167,1.366971 2.95118,0 1.82273,-2.196255 6.72585,-1.945118 7.98576,0.409031 0.56935,1.063842 0.95407,4.776342 0.85493,8.25 -0.16695,5.850003 -0.20466,5.947029 -0.51131,1.315741 -0.49174,-7.426594 -1.1059,-9.300941 -3.27299,-9.988749 -1.07795,-0.342127 -2.8769,-0.131287 -3.99768,0.468534 -1.72776,0.924669 -2.03777,2.074094 -2.03777,7.555399 0,3.643211 -0.43646,6.464816 -1,6.464816 -0.56213,0 -1,-2.792518 -1,-6.377555 z"
     style="fill:#50d2d8" />
</svg>
